<svg width="512" height="512" viewBox="0 0 512 512" fill="none" xmlns="http://www.w3.org/2000/svg">
<path d="M302.022 1.09604C300.69 1.67813 299.691 2.33298 299.691 2.47851C299.691 2.98784 304.687 1.24156 305.187 0.586708C305.853 -0.359191 304.604 -0.140907 302.022 1.09604Z" fill="#FF6E50"/>
<path d="M291.364 6.11659C289.948 6.8442 289.698 7.13525 290.614 7.20801C291.364 7.20801 292.446 6.69868 293.029 6.11659C294.278 4.80688 294.028 4.80688 291.364 6.11659Z" fill="#FF6E50"/>
<path d="M304.937 10.1178C304.937 11.9369 305.103 12.6645 305.27 11.7186C305.436 10.8455 305.436 9.39023 305.27 8.44433C305.103 7.57119 304.937 8.29881 304.937 10.1178Z" fill="#FF6E50"/>
<path d="M285.535 8.44497C284.869 8.66325 280.039 11.5009 274.876 14.7752C269.713 18.0495 263.135 22.1241 260.304 23.7976C232.991 40.46 233.241 40.3145 200.183 64.9806C181.863 78.587 179.781 80.2605 179.781 81.2064C179.781 81.4975 184.028 85.4994 189.191 90.0833C194.27 94.7401 202.764 102.598 208.01 107.619C213.256 112.639 223.831 122.462 231.492 129.52L245.398 142.253L247.23 156.806C248.23 164.737 249.229 173.468 249.479 176.087L249.978 180.89L258.805 173.104C266.299 166.556 301.856 139.488 311.682 132.867C313.347 131.703 314.513 130.539 314.263 130.175C314.013 129.738 314.347 129.666 315.013 129.884C315.762 130.102 316.345 129.957 316.345 129.593C316.345 128.21 309.683 97.1412 308.601 93.6486C307.768 90.811 306.186 88.9919 300.024 83.462C295.86 79.7512 289.032 73.3482 284.785 69.2008C280.539 65.1262 275.209 60.0328 272.878 57.9955C269.214 54.7213 268.881 54.0664 269.713 52.7567C270.213 51.8836 272.045 50.4283 273.877 49.4824C275.626 48.5365 277.458 47.0085 277.957 46.0626C278.623 44.8257 279.539 44.3164 281.288 44.3164C284.619 44.3164 286.451 43.5888 285.785 42.5701C285.535 42.1335 285.535 41.988 285.868 42.2791C286.284 42.5701 287.533 41.988 288.699 41.0421C289.865 40.0962 291.197 39.5141 291.614 39.7324C292.113 39.9507 291.614 40.7511 290.614 41.5514C289.532 42.2791 288.949 42.8611 289.282 42.8611C289.865 42.8611 295.611 38.8593 303.272 33.1839L305.103 31.8014L303.022 32.238C301.856 32.4563 300.357 32.3107 299.691 31.9469C298.775 31.4376 298.692 31.2193 299.524 31.2193C300.107 31.2193 301.19 30.7827 301.773 30.2006C303.105 29.0365 303.355 29.473 294.112 18.6316C290.781 14.7025 288.283 11.1371 288.533 10.7006C288.866 10.264 288.699 10.1185 288.2 10.4095C287.7 10.6278 287.034 10.4823 286.701 10.0457C286.451 9.60915 286.701 8.9543 287.284 8.59049C288.533 7.86288 287.533 7.79011 285.535 8.44497ZM297.193 37.0402C293.029 40.169 291.614 40.7511 293.196 38.4955C293.779 37.6951 294.695 37.0402 295.278 37.0402C295.86 37.0402 296.36 36.8219 296.36 36.4581C296.36 36.0216 299.108 34.4936 300.524 34.2025C300.773 34.2025 299.275 35.4395 297.193 37.0402ZM288.2 74.4396L290.781 77.4228L287.95 74.8762C286.368 73.4937 284.536 71.6747 283.869 70.8743C282.704 69.4918 282.704 69.4918 284.119 70.4377C284.952 71.0198 286.784 72.8389 288.2 74.4396ZM307.102 91.1748C307.102 91.5386 306.935 91.6841 306.686 91.4658C306.436 91.2475 301.523 92.8483 295.777 94.9584C287.284 98.1599 282.704 99.3968 270.796 101.507C262.802 102.889 255.974 103.908 255.724 103.69C255.474 103.471 255.974 103.253 256.89 103.253C258.056 103.253 258.222 103.108 257.306 102.598C255.974 101.798 257.056 101.143 260.054 100.925C262.302 100.779 263.135 99.6151 260.97 99.6151C260.304 99.6151 259.721 99.1058 259.721 98.5237C259.721 97.9416 260.47 97.4322 261.386 97.4322C262.469 97.4322 263.052 96.9229 263.052 95.977C263.052 95.1766 263.635 94.5218 264.301 94.5218C264.967 94.5218 265.55 94.158 265.55 93.7942C265.55 93.3576 266.133 93.0666 266.799 93.0666C267.465 93.0666 268.048 92.4117 268.048 91.6113C268.048 90.6654 268.631 90.1561 269.713 90.1561C270.629 90.1561 271.379 89.7923 271.379 89.4285C271.379 88.9919 272.128 88.7009 272.961 88.7009C273.877 88.7009 274.71 88.4098 274.876 88.1188C275.293 87.1729 279.706 86.3725 279.706 87.2456C279.706 87.6094 280.122 87.9733 280.539 87.9733C281.122 87.9733 281.205 86.9546 280.872 85.2083C279.872 80.4788 281.205 83.0982 283.37 90.0833C284.536 93.8669 285.618 96.9957 285.701 97.0684C285.868 97.214 286.867 96.8502 288.033 96.2681C289.698 95.3949 289.782 95.2494 288.366 95.6132C286.867 95.977 286.617 95.686 286.701 94.0125C286.784 92.8483 286.201 91.6113 285.535 91.102C284.452 90.3016 284.536 90.2289 286.201 90.1561C287.2 90.1561 288.033 90.5927 288.116 91.0292C288.116 91.7568 288.283 91.7568 288.616 91.0292C289.116 90.0106 291.364 89.8651 291.364 90.8837C291.364 91.2475 292.28 91.5386 293.446 91.4658C296.36 91.2475 296.277 87.9733 293.362 85.4266C292.197 84.4079 291.447 83.3165 291.697 83.0255C292.03 82.8072 292.613 83.0255 293.113 83.6076C293.779 84.5535 293.945 84.5535 294.695 83.6076C295.278 82.8072 294.861 82.0068 293.446 80.6971C292.28 79.6057 291.364 78.5143 291.364 78.1505C291.364 77.3501 306.935 90.2289 307.102 91.1748ZM280.289 81.5702C280.039 82.1523 279.789 81.9341 279.789 81.1337C279.706 80.3333 279.956 79.8967 280.206 80.1878C280.455 80.4061 280.539 81.0609 280.289 81.5702ZM238.57 103.617C241.235 104.563 242.9 105.363 242.234 105.363C240.985 105.436 232.158 101.943 233.158 101.871C233.408 101.798 235.822 102.598 238.57 103.617ZM254.725 104.054C254.725 104.417 253.809 104.708 252.643 104.708C249.895 104.708 249.895 103.617 252.643 103.544C253.809 103.471 254.725 103.69 254.725 104.054Z" fill="#FF6E50"/>
<path d="M296.776 85.0623C297.609 85.8627 298.442 86.5176 298.691 86.5176C298.941 86.5176 298.442 85.8627 297.609 85.0623C296.776 84.262 295.943 83.6071 295.694 83.6071C295.444 83.6071 295.943 84.262 296.776 85.0623Z" fill="#FF6E50"/>
<path d="M300.94 88.7011C301.19 89.0649 301.856 89.4287 302.272 89.4287C302.772 89.4287 302.855 89.0649 302.605 88.7011C302.355 88.2645 301.689 87.9735 301.273 87.9735C300.773 87.9735 300.69 88.2645 300.94 88.7011Z" fill="#FF6E50"/>
<path d="M282.204 94.4489C282.204 94.8855 282.537 95.3948 283.037 95.6131C283.536 95.8314 283.62 95.5403 283.37 94.9582C282.787 93.6485 282.204 93.4302 282.204 94.4489Z" fill="#FF6E50"/>
<path d="M275.459 52.8298C274.377 53.994 274.46 54.0667 275.792 53.1208C276.542 52.6115 277.208 52.0294 277.208 51.8839C277.208 51.3018 276.542 51.6656 275.459 52.8298Z" fill="#FF6E50"/>
<path d="M170.205 191.731C147.056 196.388 142.143 197.552 137.73 199.371C117.245 207.666 109.085 211.304 101.091 215.597C96.0944 218.362 91.4313 220.981 90.9317 221.418C90.3488 221.927 88.1837 226.438 86.102 231.459L82.4381 240.699L87.351 246.593C90.099 249.795 92.4305 252.414 92.5971 252.414C92.7636 252.414 92.6803 251.177 92.5138 249.649C92.3473 248.121 92.5138 247.321 92.9302 247.83C93.2632 248.267 95.4283 248.776 97.6766 248.849C101.34 249.067 101.84 248.849 104.088 246.593C105.421 245.211 106.503 244.337 106.503 244.629C106.503 245.72 99.6751 252.414 98.9256 251.977C98.5093 251.759 98.426 252.05 98.6758 252.632C98.9256 253.214 98.5093 254.088 97.7598 254.597C97.0937 255.106 96.5108 255.834 96.5108 256.27C96.5108 256.707 98.7591 259.035 101.507 261.582C104.255 264.056 106.503 266.457 106.503 266.894C106.503 267.33 107.169 267.694 108.002 267.694C109.584 267.694 116.163 269.731 128.82 274.17C133.566 275.843 141.643 278.463 146.723 279.991C151.886 281.519 158.048 283.483 160.463 284.356C167.124 286.685 169.872 287.048 195.186 289.45C249.312 294.616 253.393 294.761 272.711 292.797C278.624 292.142 290.781 290.978 299.691 290.177C308.601 289.45 319.093 288.431 323.007 287.994C326.92 287.631 331.001 287.267 332.167 287.194C334.998 287.121 350.819 282.392 376.133 273.879C378.965 272.933 381.296 272.351 381.296 272.642C381.296 272.933 381.629 272.787 381.962 272.351C382.962 271.114 391.289 268.349 392.288 268.858C392.871 269.149 392.954 269.076 392.621 268.567C392.205 267.985 393.121 267.839 395.619 267.985C397.617 268.13 400.615 267.839 402.364 267.33C405.028 266.53 405.944 266.53 407.61 267.33C408.775 267.839 409.358 268.422 408.942 268.713C408.526 268.931 407.526 268.64 406.61 268.13C405.778 267.548 404.529 267.33 403.946 267.548C403.03 267.839 403.196 268.13 404.612 268.785C406.277 269.586 405.611 269.877 397.367 272.351C392.454 273.879 387.292 275.552 385.876 276.061C384.544 276.498 377.965 278.681 371.304 280.791C364.642 282.828 357.564 285.157 355.482 285.884C342.659 290.323 333.332 292.287 320.925 293.088C314.097 293.597 299.858 294.761 289.282 295.78C278.79 296.726 264.967 298.035 258.555 298.618L247.064 299.709L240.236 303.784C226.579 312.006 216.42 318.336 209.842 322.847L203.097 327.431L200.766 325.758C199.516 324.812 196.269 321.974 193.521 319.355C186.61 312.806 172.12 301.164 170.871 301.164C169.539 301.164 164.043 306.257 163.96 307.494C163.96 308.659 160.296 312.078 159.047 312.078C157.798 312.078 157.881 311.715 159.463 308.95C160.213 307.713 161.379 304.73 161.961 302.474C162.628 300.146 163.71 297.453 164.376 296.58C165.376 295.125 165.459 294.688 164.543 293.597C163.627 292.506 163.127 292.433 161.795 293.088C160.962 293.451 152.718 295.853 143.559 298.254C118.411 304.948 111.083 307.276 111.166 308.731C111.499 311.86 108.752 307.494 103.172 295.853C88.6001 265.584 85.7689 260.782 75.6099 248.703C73.3616 246.011 71.5296 243.464 71.5296 242.955C71.5296 242.373 71.3631 242.155 71.1133 242.373C70.2806 243.101 74.3608 275.989 78.6076 302.983C79.3571 307.349 80.3563 313.679 80.8559 317.026C81.4388 321.246 82.3548 323.866 83.7704 325.685C84.8529 327.067 85.8522 328.595 85.9354 329.032C86.0187 329.541 86.5183 330.196 87.0179 330.633C88.1005 331.506 86.2685 336.09 84.8529 336.09C84.3533 336.09 84.0202 336.745 84.0202 337.545C84.0202 338.927 83.4373 339 76.1095 339C69.6144 339 68.1988 338.782 68.1988 337.909C68.1988 337.327 67.4494 336.817 66.5334 336.817C65.6174 336.817 64.868 337.327 64.868 337.909C64.868 338.709 63.952 339 61.5371 339C58.7892 339 58.2063 338.782 58.2063 337.545C58.2063 336.599 57.6234 336.09 56.6242 336.09C55.7082 336.09 54.709 335.726 54.4591 335.362C54.2093 334.926 54.709 334.634 55.6249 334.634C56.5409 334.634 57.5402 334.271 57.79 333.834C58.1231 333.47 60.3714 332.233 62.8695 331.215C65.3676 330.196 67.2828 329.177 67.1163 329.032C66.8665 328.886 61.5372 331.069 55.2086 333.834C46.7983 337.545 44.3001 338.927 45.9656 339C47.2146 339 48.2139 338.636 48.2139 338.273C48.2139 337.836 48.6302 337.545 49.2131 337.545C49.7127 337.545 50.7952 337.036 51.6279 336.381C53.3766 334.998 54.8755 335.58 54.8755 337.618C54.8755 338.709 54.3759 339.073 53.0436 338.927C51.961 338.782 49.9625 339.218 48.6302 339.873C46.2154 340.965 42.9678 341.692 38.2214 342.202C35.2236 342.565 29.8943 344.967 30.4772 345.767C30.727 346.131 31.1434 346.131 31.4765 345.84C33.0586 343.875 41.6355 342.202 40.3032 344.093C40.0533 344.457 38.8876 344.821 37.7218 344.821C36.3062 344.821 35.7233 345.185 35.7233 346.276C35.7233 347.44 36.3062 347.732 38.8876 347.804C42.9678 347.95 40.3864 348.314 30.5605 348.823C26.0639 349.114 22.4 349.623 22.4 349.914C22.4 350.278 24.2319 351.588 26.5635 352.898C28.8118 354.135 30.4772 355.517 30.2274 355.881C29.9776 356.245 30.0609 356.39 30.4772 356.317C31.9761 355.954 34.8073 357.991 34.6408 359.373C34.4742 361.12 32.8088 361.265 31.0601 359.737C30.3107 359.155 29.3114 358.646 28.8118 358.646C28.1456 358.646 28.2289 358.864 28.9784 359.301C30.9768 360.392 26.9799 360.974 23.2327 360.101C19.4022 359.228 18.0699 359.592 18.7361 361.411C19.1524 362.429 19.0692 362.429 18.403 361.629C17.6536 360.756 17.3205 360.756 16.1547 361.775C15.4052 362.502 14.3227 363.011 13.8231 363.011C13.2402 363.011 13.3235 362.72 14.0729 362.284C14.9056 361.774 14.9889 361.556 14.2395 361.556C13.4068 361.556 13.4068 361.265 14.2395 360.174C14.8224 359.373 15.4885 358.864 15.8216 359.082C16.6543 359.519 17.6536 358.064 17.9034 355.881C18.1532 353.698 18.3197 353.552 10.7421 363.011C7.328 367.232 3.6641 371.743 2.58158 372.98C1.16598 374.653 0.916169 375.381 1.6656 375.381C2.33177 375.381 3.33102 374.508 3.83064 373.344C4.41353 372.252 5.74586 370.506 6.74511 369.487C7.82763 368.396 9.49304 366.577 10.4923 365.485C11.5748 364.321 12.4075 363.812 12.4075 364.248C12.4075 364.758 12.0744 365.267 11.5748 365.558C11.1584 365.776 10.9919 366.358 11.1584 366.868C11.6581 367.959 10.0759 369.778 7.66109 370.942C6.57857 371.379 5.74586 372.252 5.74586 372.834C5.74586 373.416 5.41278 373.926 4.91316 373.926C4.4968 373.926 4.08045 374.217 4.08045 374.581C4.08045 375.454 6.57857 375.745 26.5635 377.2C42.8013 378.364 58.3729 379.601 67.3661 380.401C70.3638 380.692 64.9512 380.838 55.4584 380.692L38.1381 380.401L38.3879 382.803C38.6377 384.985 38.8876 385.204 41.802 385.422C44.2169 385.64 44.883 385.931 44.883 387.095C44.883 388.041 45.4659 388.478 46.6317 388.478C48.2971 388.478 48.3804 388.769 48.0473 391.679L47.631 394.881L49.796 394.081C50.9618 393.644 54.709 391.971 58.1231 390.37C69.1148 385.276 77.3586 381.929 77.3586 382.657C77.3586 383.094 77.0255 383.385 76.6924 383.385C76.276 383.385 75.2768 383.894 74.3608 384.476C72.8619 385.495 72.8619 385.495 74.7772 385.204C76.3593 384.913 76.6091 385.058 75.8597 385.713C75.2768 386.222 74.8604 387.678 74.8604 388.987C74.8604 390.879 75.1935 391.388 76.5259 391.388C77.6084 391.388 78.1913 391.898 78.1913 392.844C78.1913 393.717 78.7742 394.299 79.5236 394.299C80.7727 394.299 80.7727 394.444 79.5236 396.118C78.7742 397.064 78.1913 398.374 78.1913 399.028C78.1913 399.683 77.8582 399.974 77.3586 399.756C76.9422 399.538 76.5259 399.61 76.5259 400.047C76.5259 400.484 77.5251 400.629 79.024 400.338C80.4396 400.12 81.5221 400.265 81.5221 400.702C81.5221 401.721 79.4403 403.103 78.7742 402.521C78.4411 402.303 78.1913 402.375 78.1913 402.739C78.1913 403.103 82.0217 404.995 86.6849 406.887C93.2632 409.652 95.2617 410.234 95.7614 409.433C96.261 408.778 96.5108 408.778 96.5108 409.36C96.5108 409.943 97.5933 410.088 99.6751 409.943L102.756 409.652L99.2587 410.452L95.8446 411.18L95.2617 415.691C95.0119 418.092 94.429 422.385 94.0127 425.223C92.4305 435.846 91.348 446.76 91.7644 447.124C92.5971 447.851 103.089 445.45 116.912 441.303C138.396 434.973 136.148 435.118 154.384 438.32C163.127 439.775 173.37 441.594 177.283 442.321C181.197 443.049 186.443 443.995 188.941 444.432C191.689 444.941 205.262 445.232 222.916 445.232C240.902 445.305 252.227 445.596 252.227 445.96C252.227 446.396 251.894 446.687 251.394 446.687C250.894 446.687 250.561 451.198 250.561 458.693V470.698L247.48 470.844C245.149 470.917 245.565 471.062 249.312 471.426L254.309 471.935L248.48 472.008C237.571 472.226 156.133 464.514 142.726 461.967C129.652 459.493 95.7614 451.853 90.6819 450.252C83.021 447.779 46.3819 430.389 26.3137 419.62C20.4848 416.491 15.5718 413.944 15.322 413.944C15.0722 413.944 14.9056 414.308 14.9056 414.745C14.9056 415.909 15.7383 416.418 43.9671 434.172C52.0443 439.265 53.7097 440.575 51.2116 439.702C50.3789 439.411 49.9625 440.43 49.6295 443.704C48.88 449.598 50.3789 455.855 53.2934 459.639C54.6257 461.385 55.7082 462.913 55.7082 463.058C55.7082 463.568 66.6999 472.517 67.6159 472.808C68.1988 472.954 71.1133 474.555 74.111 476.301C77.1087 477.975 80.0232 479.43 80.5228 479.43C80.9392 479.43 81.5221 479.866 81.7719 480.448C82.0217 481.031 83.354 481.685 84.7696 481.976C86.1852 482.267 87.351 482.777 87.351 483.068C87.351 483.432 88.9332 484.087 90.9317 484.523C92.8469 484.96 96.8439 486.269 99.8416 487.434C105.504 489.616 110.667 491.217 117.745 492.891C120.076 493.473 125.073 494.782 128.986 495.801C135.565 497.475 149.055 500.094 161.045 501.986C163.793 502.35 168.873 503.223 172.287 503.878C179.448 505.115 179.865 505.187 193.937 507.079C199.683 507.88 207.844 508.825 212.174 509.262C216.42 509.699 220.251 510.135 220.501 510.353C220.834 510.499 229.66 511.008 240.153 511.445C254.808 512.172 262.719 512.172 273.877 511.518C308.101 509.48 319.093 508.68 332.167 507.152C353.317 504.605 357.897 504.023 360.895 503.368C362.727 503.005 365.558 502.495 367.14 502.277C369.971 501.913 376.3 500.749 387.125 498.566C390.123 497.911 396.285 496.456 400.865 495.292C405.445 494.055 410.524 492.818 412.106 492.454C413.688 492.018 415.77 491.435 416.686 491.144C417.602 490.781 421.349 489.616 425.013 488.452C431.758 486.415 448.079 479.43 450.494 477.538C451.16 476.956 452.159 476.519 452.659 476.519C453.658 476.519 462.069 470.626 468.147 465.605C470.396 463.786 473.477 460.585 475.059 458.474C477.64 454.982 477.973 454.036 478.057 449.015C478.306 441.885 477.39 438.174 474.642 435.336C471.561 432.135 469.979 429.952 470.146 429.152C470.312 428.861 469.48 428.861 468.314 429.224C467.148 429.588 466.232 429.806 466.232 429.661C466.232 429.515 471.062 426.241 476.974 422.458C485.135 417.146 487.883 414.89 488.632 413.071C495.71 395.463 502.871 376.909 502.871 376.254C502.871 375.817 499.374 371.961 495.21 367.668C484.885 357.409 481.221 353.48 481.221 352.825C481.221 352.461 483.719 350.86 486.883 349.187C499.79 342.056 510.782 335.726 511.365 334.998C512.198 334.052 512.198 313.097 511.448 292.287L510.948 276.498L495.21 265.366C486.467 259.254 478.973 254.088 478.556 253.942C478.057 253.796 477.807 254.16 478.14 254.742C478.39 255.397 477.64 256.78 476.308 258.017C474.476 259.763 472.394 260.491 465.15 262.091C460.153 263.183 455.823 263.91 455.407 263.692C455.074 263.474 454.241 261.655 453.658 259.617L452.576 255.907L444.165 256.489C439.586 256.78 434.756 257.071 433.34 257.071L430.842 257.144L431.259 251.686C431.841 242.082 431.758 241.5 425.929 229.494C422.848 223.091 419.934 217.561 419.517 217.125C418.268 216.033 418.601 217.852 420.433 221.854C422.182 225.783 422.598 227.384 421.183 225.347C420.766 224.692 419.85 224.255 419.268 224.474C418.685 224.692 416.936 223.892 415.354 222.8C413.855 221.709 412.856 221.272 413.106 221.854C413.355 222.436 415.187 227.093 417.103 232.114L420.766 241.282L416.436 246.666C411.357 252.923 408.359 256.052 407.277 256.052C406.277 256.052 398.034 248.339 393.787 243.392C390.04 239.026 387.375 237.571 380.88 236.043C378.215 235.461 375.217 234.515 374.218 233.933C373.219 233.351 369.971 232.332 367.057 231.677C364.142 231.095 360.812 230.222 359.646 229.785C356.898 228.767 340.66 224.546 333.832 223.091C325.921 221.418 323.59 221.199 321.758 221.927C320.176 222.582 320.176 222.582 321.924 222.291C322.924 222.145 323.923 222.436 324.173 223.018C324.506 223.746 323.839 224.037 321.841 224.037C320.259 224.037 318.26 224.692 317.178 225.492C316.095 226.293 314.763 226.947 314.263 226.947C313.68 226.947 312.098 227.457 310.849 228.039C309.517 228.621 307.185 229.13 305.686 229.13C303.771 229.13 302.189 229.785 300.524 231.168C298.442 232.987 297.276 233.351 291.614 233.787C288.033 234.078 282.704 234.369 279.706 234.369C269.797 234.515 247.73 232.768 244.066 231.677C242.068 231.095 240.153 230.731 239.736 230.949C239.32 231.168 238.154 230.658 237.238 229.858C236.156 228.912 234.906 228.475 234.157 228.694C233.075 229.058 232.991 228.985 233.824 228.112C234.657 227.311 234.573 227.02 233.408 226.802C232.325 226.656 232.492 226.22 234.407 224.474C235.906 223.091 236.322 222.509 235.406 222.8C234.24 223.164 233.491 222.364 231.659 218.944C229.078 214.214 228.411 213.85 221.25 213.85C217.17 213.85 216.42 213.632 216.42 212.541C216.42 211.886 215.504 210.358 214.422 209.121C212.757 207.302 212.257 207.156 211.174 207.957C209.426 209.194 204.929 208.393 202.514 206.356C201.015 205.192 200.599 204.028 200.516 201.19C200.432 199.153 200.099 196.679 199.766 195.66L199.1 193.841L198.934 195.66C198.767 196.97 198.601 197.115 198.351 196.169C198.018 195.151 197.018 194.932 192.855 194.932C190.024 194.86 186.027 194.569 183.945 194.132C181.863 193.696 178.699 193.113 176.867 192.822C173.703 192.313 173.786 192.095 177.283 191.076C179.948 190.276 175.035 190.712 170.205 191.731ZM346.323 228.039C362.727 232.259 387.292 239.317 388.291 240.117C390.373 241.791 387.208 241.573 379.881 239.462C375.384 238.226 362.477 234.733 351.152 231.604C339.827 228.476 330.751 225.711 331.001 225.347C331.667 224.401 332.749 224.619 346.323 228.039ZM329.169 231.459C329.502 234.369 329.585 238.517 329.502 240.627C329.335 243.683 329.002 244.337 328.003 243.974C327.337 243.683 325.005 243.101 322.84 242.737C320.592 242.3 318.843 241.645 318.843 241.354C318.843 241.063 318.26 240.772 317.594 240.772C316.845 240.772 316.345 240.117 316.345 239.244C316.345 237.934 316.012 237.789 314.513 238.226C313.431 238.517 311.848 238.735 310.933 238.808C310.017 238.808 309.017 239.171 308.768 239.535C308.351 240.045 300.44 239.171 296.36 238.08C295.611 237.862 297.026 237.061 299.691 236.043C302.189 235.097 309.184 232.55 315.096 230.295C321.092 228.112 326.504 226.293 327.337 226.22C328.419 226.22 328.752 227.239 329.169 231.459ZM112.415 237.643C113.498 238.808 113.415 238.88 112.166 237.934C110.75 236.989 110.334 236.406 111 236.406C111.166 236.406 111.833 236.989 112.415 237.643ZM311.932 240.481C311.682 240.699 310.933 240.772 310.35 240.554C309.683 240.336 309.933 240.117 310.849 240.117C311.765 240.045 312.265 240.263 311.932 240.481ZM418.601 258.235C418.018 258.963 417.436 259.472 417.186 259.326C416.853 259.035 418.685 256.78 419.268 256.78C419.434 256.78 419.184 257.435 418.601 258.235ZM414.438 264.638C413.355 266.311 412.19 267.694 411.856 267.694C411.44 267.694 411.357 267.403 411.607 267.112C411.857 266.748 410.857 266.675 409.442 266.821C406.277 267.257 406.86 266.311 411.024 264.42C414.604 262.819 415.52 261.946 414.854 260.782C414.521 260.345 414.688 260.345 415.354 260.854C416.02 261.436 415.853 262.382 414.438 264.638ZM470.229 283.41C473.727 285.739 478.806 289.231 481.471 291.196L486.217 294.834V306.549V318.263L480.971 321.101C478.14 322.702 471.228 326.558 465.649 329.759C459.82 333.034 454.907 335.362 454.241 335.144C453.409 334.853 453.159 335.071 453.492 335.799C453.742 336.308 453.492 336.817 452.992 336.817C452.076 336.817 447.246 339.364 436.588 345.621L430.676 349.041L420.517 344.603C410.691 340.237 410.274 340.164 409.109 341.474C405.361 345.912 410.441 337.545 415.687 330.633C421.1 323.575 420.933 323.647 424.347 324.884C425.929 325.539 427.428 325.83 427.678 325.685C427.844 325.467 426.679 324.884 425.097 324.375C421.516 323.211 421.516 322.993 423.348 310.259C424.514 302.547 428.344 282.392 429.094 280.427C429.26 279.991 435.922 279.627 446.664 279.481L463.901 279.263L470.229 283.41ZM482.886 321.974C482.22 322.556 480.971 323.429 480.055 323.793C478.973 324.302 479.306 323.866 480.805 322.702C483.636 320.592 484.385 320.3 482.886 321.974ZM89.6826 334.271C89.4328 334.489 88.9332 334.125 88.6834 333.398C88.1837 332.379 88.267 332.306 89.0997 332.961C89.6826 333.47 89.9324 334.052 89.6826 334.271ZM86.2685 341.62C86.0187 341.838 85.2693 341.911 84.6864 341.692C84.0202 341.474 84.27 341.256 85.186 341.256C86.102 341.183 86.6016 341.401 86.2685 341.62ZM81.5221 343.657C81.5221 343.802 80.9392 344.166 80.1898 344.385C79.5236 344.603 79.1905 344.53 79.4403 344.093C79.9399 343.366 81.5221 343.075 81.5221 343.657ZM407.36 344.457C407.11 345.112 406.694 345.476 406.527 345.258C406.277 345.039 406.361 344.603 406.694 344.166C407.443 343.002 407.943 343.22 407.36 344.457ZM16.8208 357.554C16.571 358.209 16.1547 358.573 15.9881 358.355C15.7383 358.136 15.8216 357.7 16.1547 357.263C16.9041 356.099 17.4037 356.317 16.8208 357.554ZM39.0541 360.101C39.0541 360.465 38.3879 360.829 37.6385 360.829C36.3894 360.829 36.3062 360.683 37.3887 360.101C38.9708 359.228 39.0541 359.228 39.0541 360.101ZM278.29 445.741C276.292 445.887 273.128 445.887 271.212 445.741C269.214 445.596 270.796 445.45 274.71 445.45C278.624 445.45 280.206 445.596 278.29 445.741ZM286.618 445.741C286.035 445.887 285.035 445.887 284.536 445.741C283.953 445.523 284.369 445.377 285.535 445.377C286.701 445.377 287.117 445.523 286.618 445.741Z" fill="#FF6E50"/>
<path d="M447.912 333.18C448.579 333.543 449.578 333.907 449.994 333.907C450.494 333.907 450.244 333.543 449.578 333.18C448.912 332.816 447.996 332.452 447.496 332.452C447.08 332.452 447.246 332.816 447.912 333.18Z" fill="#FF6E50"/>
<path d="M417.935 221.781C417.935 222.145 418.351 222.727 418.768 222.945C419.267 223.164 419.6 223.091 419.6 222.654C419.6 222.29 419.267 221.708 418.768 221.49C418.351 221.272 417.935 221.345 417.935 221.781Z" fill="#FF6E50"/>
<path d="M315.346 223.819C315.845 223.964 316.845 223.964 317.428 223.819C317.927 223.6 317.511 223.455 316.345 223.455C315.179 223.455 314.763 223.6 315.346 223.819Z" fill="#FF6E50"/>
<path d="M99.0083 250.231C98.2589 250.668 98.1756 250.959 98.7585 250.959C99.2581 250.959 100.008 250.595 100.257 250.231C100.924 249.358 100.59 249.358 99.0083 250.231Z" fill="#FF6E50"/>
<path d="M391.705 270.604C391.455 270.968 391.622 271.332 392.038 271.332C392.537 271.332 392.954 270.968 392.954 270.604C392.954 270.168 392.787 269.877 392.621 269.877C392.371 269.877 391.955 270.168 391.705 270.604Z" fill="#FF6E50"/>
<path d="M388.624 271.841C389.207 272.059 389.956 271.986 390.206 271.768C390.539 271.55 390.04 271.332 389.124 271.404C388.208 271.404 387.958 271.623 388.624 271.841Z" fill="#FF6E50"/>
<path d="M384.21 273.515C383.128 273.952 382.961 274.17 383.794 274.17C384.46 274.17 385.626 273.879 386.292 273.515C387.791 272.642 386.459 272.642 384.21 273.515Z" fill="#FF6E50"/>
<path d="M380.463 274.97C379.714 275.406 379.631 275.697 380.214 275.697C380.713 275.697 381.463 275.333 381.712 274.97C382.379 274.097 382.046 274.097 380.463 274.97Z" fill="#FF6E50"/>
<path d="M375.467 276.426C374.801 276.79 374.634 277.153 375.051 277.153C375.55 277.153 376.466 276.79 377.132 276.426C377.799 276.062 378.048 275.698 377.549 275.698C377.132 275.698 376.133 276.062 375.467 276.426Z" fill="#FF6E50"/>
<path d="M345.323 286.394C345.906 286.612 346.655 286.539 346.905 286.321C347.238 286.103 346.739 285.884 345.823 285.957C344.907 285.957 344.657 286.175 345.323 286.394Z" fill="#FF6E50"/>
<path d="M79.8564 331.069C79.8564 331.506 79.3568 332.306 78.6906 332.888C78.0244 333.47 77.1085 333.907 76.6088 333.907C76.1092 333.907 75.6929 334.416 75.6929 334.998C75.6929 335.726 76.6088 336.09 78.6073 336.09C81.4385 336.09 81.5218 336.017 81.5218 333.179C81.5218 331.579 81.1887 330.269 80.6891 330.269C80.2728 330.269 79.8564 330.633 79.8564 331.069Z" fill="#FF6E50"/>
<path d="M38.6376 341.183C38.3878 341.619 38.7209 341.692 39.3871 341.474C40.8859 340.964 41.1357 340.455 39.97 340.455C39.4703 340.455 38.8874 340.746 38.6376 341.183Z" fill="#FF6E50"/>
<path d="M25.8138 346.712C24.3149 347.294 23.2324 347.949 23.4822 348.168C23.8986 348.604 29.0613 346.494 29.0613 345.912C29.0613 345.475 29.3112 345.403 25.8138 346.712Z" fill="#FF6E50"/>
<path d="M0 376.473C0.0832706 377.855 1.49887 380.183 1.49887 379.019C1.49887 378.437 1.16579 377.418 0.749435 376.836C0.333082 376.254 0 376.036 0 376.473Z" fill="#FF6E50"/>
<path d="M1.74902 380.838C1.74902 381.202 2.24865 382.73 2.83154 384.112C3.41444 385.495 3.99733 386.15 3.99733 385.568C3.99733 384.986 3.49771 383.458 2.83154 382.293C2.24865 381.056 1.74902 380.402 1.74902 380.838Z" fill="#FF6E50"/>
<path d="M70.6968 387.75C70.6968 388.114 71.1131 388.478 71.5295 388.478C72.0291 388.478 72.3622 388.114 72.3622 387.75C72.3622 387.313 72.0291 387.022 71.5295 387.022C71.1131 387.022 70.6968 387.313 70.6968 387.75Z" fill="#FF6E50"/>
<path d="M207.51 446.469C210.591 446.615 215.504 446.615 218.335 446.469C221.167 446.323 218.668 446.251 212.673 446.251C206.761 446.251 204.429 446.323 207.51 446.469Z" fill="#FF6E50"/>
<path d="M188.525 447.488C186.276 447.852 180.614 448.798 176.034 449.598C171.454 450.326 166.375 451.199 164.792 451.417C158.964 452.217 153.551 453.454 152.385 454.255C151.469 454.837 151.303 454.837 151.802 454.109C152.135 453.673 152.052 453.236 151.552 453.236C151.136 453.236 150.47 453.527 150.22 453.964C149.97 454.327 148.888 454.691 147.889 454.764C146.14 454.764 146.14 454.837 148.138 455.564C149.387 456.001 149.804 456.437 149.221 456.656C147.722 457.165 147.889 458.329 149.387 458.329C150.054 458.329 150.636 458.766 150.636 459.275C150.636 461.24 153.967 462.768 157.548 462.477C159.463 462.331 160.296 462.331 159.38 462.549C156.882 463.132 219.751 469.535 235.156 470.262L242.65 470.626L235.989 469.68C230.41 468.88 229.91 468.661 232.658 468.516C234.49 468.37 236.655 468.298 237.488 468.37C240.485 468.589 238.404 466.697 232.158 463.568C230.576 462.768 225.58 460.294 221.083 458.038C216.587 455.783 211.84 453.309 210.675 452.581C209.509 451.854 207.843 451.053 207.094 450.835C204.179 449.962 205.678 449.234 210.758 449.016C215.504 448.87 217.17 448.506 216.337 447.852C215.504 447.27 192.272 446.906 188.525 447.488Z" fill="#FF6E50"/>
</svg>
